<?xml version="1.0" standalone="no"?>
<!DOCTYPE svg PUBLIC "-//W3C//DTD SVG 20010904//EN"
 "http://www.w3.org/TR/2001/REC-SVG-20010904/DTD/svg10.dtd">
<svg version="1.0" xmlns="http://www.w3.org/2000/svg"
 width="500.000000pt" height="500.000000pt" viewBox="0 0 500.000000 500.000000"
 preserveAspectRatio="xMidYMid meet">

<g transform="translate(0.000000,500.000000) scale(0.100000,-0.100000)"
fill="#000000" stroke="none">
<path d="M2208 3745 c-30 -17 -42 -45 -33 -74 6 -19 45 -37 95 -43 14 -2 25
-9 25 -18 0 -11 -12 -15 -52 -15 -41 1 -53 -3 -56 -17 -6 -21 19 -31 75 -30
57 1 88 24 88 67 0 39 -13 49 -77 60 -49 8 -59 17 -38 35 9 8 28 10 51 6 33
-7 35 -6 32 16 -2 19 -10 23 -43 25 -22 2 -52 -4 -67 -12z"/>
<path d="M2767 3735 c-7 -16 -3 -20 36 -29 31 -7 31 -5 14 -71 -14 -55 -36
-68 -66 -41 -13 12 -20 13 -29 4 -17 -17 3 -45 43 -58 48 -16 80 5 95 60 5 22
15 58 21 81 6 23 9 42 7 44 -5 3 -95 25 -106 25 -6 0 -12 -7 -15 -15z"/>
<path d="M1988 3683 c-24 -6 -23 -14 7 -73 14 -27 25 -52 25 -54 0 -3 -33 13
-73 34 -64 34 -76 38 -91 27 -17 -13 -16 -19 24 -105 24 -51 45 -92 47 -92 2
0 13 5 24 10 18 10 18 12 -7 61 -14 28 -23 53 -20 56 2 3 34 -10 69 -29 49
-26 69 -32 85 -25 20 9 19 11 -20 96 -44 96 -46 99 -70 94z"/>
<path d="M3043 3596 c-28 -24 -66 -55 -85 -70 -32 -26 -32 -27 -14 -41 17 -13
22 -13 37 1 16 14 21 13 58 -6 30 -15 41 -27 41 -44 0 -15 9 -27 25 -34 24
-11 25 -10 26 21 0 17 4 67 8 110 6 72 5 80 -13 93 -11 8 -23 14 -26 13 -3 0
-28 -19 -57 -43z m50 -59 c-6 -41 -11 -44 -39 -22 -19 15 -18 16 10 40 15 15
30 24 32 22 2 -1 1 -20 -3 -40z"/>
<path d="M3267 3413 c-64 -72 -67 -77 -51 -95 17 -18 18 -18 41 4 21 19 25 20
38 7 11 -11 13 -22 6 -46 -7 -25 -6 -35 8 -47 23 -21 31 -20 31 3 0 34 12 51
34 51 30 0 66 40 66 74 0 18 -15 43 -46 76 -26 28 -49 50 -53 50 -3 -1 -36
-35 -74 -77z m113 -13 c24 -24 25 -34 4 -54 -19 -20 -19 -20 -49 0 -29 19 -31
31 -8 56 21 23 28 23 53 -2z"/>
<path d="M1628 3457 c-55 -46 -64 -107 -22 -156 65 -77 194 -23 194 81 0 85
-106 131 -172 75z m85 -28 c28 -15 37 -28 37 -58 0 -32 -27 -61 -57 -61 -56 0
-86 83 -41 114 27 19 33 19 61 5z"/>
<path d="M2950 3255 c-7 -8 -15 -13 -19 -10 -4 2 -41 -26 -82 -62 -79 -70
-141 -103 -227 -122 -71 -15 -366 -14 -472 1 -87 13 -195 16 -205 6 -3 -3 0
-17 6 -32 8 -16 15 -22 19 -15 5 7 21 -7 41 -36 l34 -48 150 6 c204 7 468 58
565 107 48 24 135 108 179 173 31 45 37 64 11 32z"/>
<path d="M1426 3245 c-3 -9 -6 -18 -6 -21 0 -2 23 -19 50 -37 l50 -34 -81 -7
c-60 -5 -86 -11 -95 -24 -10 -14 -4 -22 49 -58 125 -83 114 -78 126 -55 10 18
5 24 -39 54 l-51 34 32 7 c17 3 53 6 78 6 43 0 71 12 71 32 0 8 -139 104 -164
114 -7 3 -16 -2 -20 -11z"/>
<path d="M3490 3199 c-41 -28 -79 -54 -84 -59 -10 -10 45 -93 76 -115 28 -19
71 -19 108 0 60 31 66 92 18 172 -18 29 -35 53 -38 52 -3 0 -39 -23 -80 -50z
m94 -41 c21 -30 20 -47 -6 -75 -28 -30 -68 -30 -98 2 -26 28 -25 29 35 69 48
32 50 32 69 4z"/>
<path d="M1261 2937 c-23 -29 -41 -87 -35 -116 8 -40 47 -78 84 -83 67 -10
130 50 130 125 0 30 -5 39 -24 47 -46 17 -61 16 -64 -6 -2 -16 4 -23 22 -28
51 -13 19 -86 -38 -86 -61 0 -88 68 -45 111 16 16 18 23 8 35 -14 17 -23 18
-38 1z"/>
<path d="M3643 2912 c-81 -32 -92 -40 -87 -57 4 -11 8 -22 10 -24 1 -2 46 14
99 35 69 27 94 42 90 52 -3 7 -5 18 -5 23 0 13 -6 12 -107 -29z"/>
<path d="M2402 2900 c-135 -19 -307 -95 -437 -192 -84 -63 -215 -193 -215
-212 0 -17 128 -138 218 -206 92 -69 246 -147 339 -170 42 -11 80 -25 83 -30
3 -6 20 22 38 62 18 39 30 73 28 75 -2 2 -9 -10 -16 -27 -12 -28 -16 -30 -49
-24 -153 25 -343 128 -479 260 l-67 64 65 60 c237 219 496 308 744 255 136
-29 318 -138 446 -269 l54 -56 -29 -31 c-49 -51 -185 -154 -256 -193 -74 -40
-187 -81 -252 -91 -41 -6 -43 -6 -60 30 -20 42 -17 51 22 60 47 10 105 60 136
117 106 195 -84 423 -295 353 -147 -49 -213 -227 -135 -361 28 -48 92 -101
134 -111 14 -3 31 -10 37 -15 8 -5 16 2 24 22 7 16 16 30 19 30 4 0 29 -50 56
-110 27 -61 51 -107 54 -102 3 4 44 18 91 30 172 45 331 143 474 292 l77 81
-30 38 c-83 104 -259 243 -382 300 -140 66 -295 91 -437 71z m171 -331 c56
-61 24 -159 -58 -175 -60 -11 -125 44 -125 106 0 36 30 81 63 95 43 19 86 10
120 -26z"/>
<path d="M3710 2739 c-25 -4 -59 -11 -76 -14 -26 -4 -30 -9 -27 -29 5 -22 7
-23 55 -14 27 5 54 8 59 6 5 -2 -13 -29 -41 -60 -58 -65 -67 -104 -22 -95 15
3 62 11 105 18 70 11 78 14 75 33 -3 22 -6 23 -82 13 l-48 -7 54 63 c79 90 68
109 -52 86z"/>
<path d="M1170 2608 c0 -24 4 -25 96 -37 102 -12 114 -10 114 18 0 20 -18 24
-142 37 -67 7 -68 7 -68 -18z"/>
<path d="M1224 2440 c-82 -33 -84 -164 -3 -206 71 -36 149 18 149 103 0 38 -5
50 -34 79 -35 35 -68 42 -112 24z m87 -61 c27 -27 21 -67 -14 -93 -26 -19 -30
-19 -55 -5 -15 8 -31 27 -37 43 -8 25 -6 31 18 52 34 29 61 30 88 3z"/>
<path d="M3645 2400 c-22 -43 -19 -106 6 -131 28 -28 59 -21 86 21 48 75 50
77 59 57 4 -11 0 -32 -9 -51 -14 -30 -14 -33 4 -45 18 -10 21 -8 34 23 21 49
19 92 -5 116 -37 37 -75 23 -101 -36 -20 -49 -49 -60 -49 -19 0 14 8 37 17 51
14 22 14 27 2 35 -22 14 -27 11 -44 -21z"/>
<path d="M2615 2055 c38 -109 48 -136 51 -132 5 5 -31 111 -46 134 -10 16 -11
16 -5 -2z"/>
<path d="M2351 1989 c-6 -18 -9 -34 -7 -36 2 -2 9 10 15 28 6 18 9 34 7 36 -2
2 -9 -10 -15 -28z"/>
<path d="M1384 1976 c-15 -12 -19 -27 -19 -73 0 -45 -3 -58 -15 -58 -10 0 -18
16 -24 43 -7 30 -15 42 -28 42 -33 0 -19 -79 22 -120 50 -50 104 -8 94 71 -4
32 -2 49 6 54 18 11 40 -22 40 -62 0 -26 4 -33 20 -33 41 0 17 115 -29 140
-27 14 -44 13 -67 -4z"/>
<path d="M2326 1918 c-10 -39 -7 -97 8 -131 24 -56 95 -108 144 -106 9 0 -4 7
-29 15 -86 26 -129 101 -115 200 6 47 2 58 -8 22z"/>
<path d="M2672 1867 c-3 -90 -44 -147 -123 -172 -24 -8 -36 -14 -26 -14 32 -2
82 26 114 62 34 39 47 83 40 138 -3 28 -4 26 -5 -14z"/>
<path d="M3490 1879 c-9 -15 -8 -24 1 -35 17 -21 -35 -98 -61 -91 -17 4 -59
-27 -49 -37 2 -2 51 -13 109 -25 l105 -22 17 22 c10 11 15 26 11 33 -36 58
-114 176 -118 176 -2 0 -9 -9 -15 -21z m80 -152 c0 -8 -45 0 -67 12 -10 5 -9
12 3 30 l17 23 23 -28 c13 -16 23 -32 24 -37z"/>
<path d="M1542 1681 l-59 -49 -25 24 c-21 21 -26 23 -37 11 -9 -12 -1 -27 41
-80 57 -71 56 -71 77 -58 11 7 10 13 -5 36 -20 31 -26 23 70 102 33 27 37 34
26 47 -7 9 -16 16 -21 16 -4 0 -35 -22 -67 -49z"/>
<path d="M3272 1603 c-39 -19 -68 -70 -59 -104 4 -13 29 -49 56 -79 47 -52 50
-54 67 -38 16 16 15 20 -29 72 -50 58 -58 89 -28 106 32 17 40 13 95 -46 49
-53 52 -55 68 -37 16 17 14 21 -35 75 -59 65 -87 75 -135 51z"/>
<path d="M1733 1557 c-11 -12 -40 -47 -66 -78 -46 -54 -46 -56 -28 -73 18 -17
22 -14 85 61 36 43 66 81 66 85 0 4 -8 12 -19 17 -14 8 -23 5 -38 -12z"/>
<path d="M3073 1458 c-17 -8 -23 -20 -23 -44 0 -42 -11 -48 -48 -27 -26 15
-34 15 -58 4 l-28 -13 57 -31 58 -32 -6 -57 c-4 -32 -4 -58 0 -58 20 0 45 24
45 43 0 12 4 28 9 36 7 11 13 11 32 -3 29 -20 40 -20 64 -2 18 13 15 15 -34
40 l-52 27 6 65 c4 35 6 64 4 63 -2 0 -14 -5 -26 -11z"/>
<path d="M1923 1447 c-6 -6 -24 -38 -42 -69 -35 -62 -40 -65 -71 -45 -17 10
-22 9 -30 -3 -12 -19 -3 -27 81 -73 59 -32 68 -35 73 -20 5 11 -2 24 -18 37
l-25 21 39 65 c22 36 39 68 40 72 0 16 -38 28 -47 15z"/>
<path d="M2100 1352 c0 -15 9 -22 33 -27 63 -14 76 -22 70 -45 -4 -16 -11 -20
-27 -15 -11 3 -36 9 -55 12 -28 5 -33 3 -29 -13 2 -12 16 -21 41 -27 40 -10
57 -31 40 -48 -7 -7 -27 -6 -61 4 -47 15 -50 14 -55 -3 -4 -16 5 -22 51 -36
104 -30 101 -32 132 76 l27 95 -56 17 c-101 31 -111 32 -111 10z"/>
<path d="M2485 1270 c-6 -28 -10 -30 -49 -30 -53 0 -76 -22 -76 -73 0 -47 24
-63 108 -73 l62 -7 0 75 c0 42 3 90 6 107 6 28 4 31 -19 31 -20 0 -27 -6 -32
-30z m-5 -101 c0 -41 0 -41 -32 -35 -29 6 -47 20 -48 38 0 15 33 38 56 38 22
0 24 -4 24 -41z"/>
</g>
</svg>
